<?xml version="1.0" encoding="UTF-8"?>
<svg xmlns="http://www.w3.org/2000/svg" xmlns:xlink="http://www.w3.org/1999/xlink" width="412" height="133.333333" viewBox="0 0 412 133.333333" version="1.1">
<g id="surface1">
<path style="fill:none;stroke-width:1;stroke-linecap:round;stroke-linejoin:round;stroke:rgb(0%,0%,0%);stroke-opacity:1;stroke-miterlimit:10;" d="M 287.397461 447.199219 L 308.397461 447.199219 L 308.397461 468.199219 L 287.397461 468.199219 Z M 287.397461 447.199219 " transform="matrix(1.333333,0,0,1.333333,-381.333333,-492)"/>
<path style=" stroke:none;fill-rule:nonzero;fill:rgb(0%,0%,0%);fill-opacity:1;" d="M 18.679688 121.601562 L 18.679688 121.308594 C 18.492188 121.246094 18.410156 121.203125 18.324219 121.078125 L 16.535156 118.328125 L 17.742188 116.828125 C 17.972656 116.558594 18.222656 116.414062 18.597656 116.351562 L 18.597656 116.058594 L 16.574219 116.058594 L 16.574219 116.351562 L 16.824219 116.371094 C 17.097656 116.414062 17.179688 116.453125 17.179688 116.640625 C 17.179688 116.828125 17.054688 116.996094 16.722656 117.414062 L 16.304688 117.953125 C 16.242188 117.890625 16.199219 117.828125 16.136719 117.765625 C 15.742188 117.246094 15.449219 116.746094 15.449219 116.578125 C 15.449219 116.433594 15.617188 116.371094 16.011719 116.351562 L 16.011719 116.058594 L 13.011719 116.058594 L 13.011719 116.351562 C 13.324219 116.414062 13.386719 116.453125 13.636719 116.828125 L 15.179688 119.183594 C 14.992188 119.414062 15.097656 119.289062 14.910156 119.515625 L 14.386719 120.203125 C 13.722656 121.101562 13.472656 121.289062 13.035156 121.308594 L 13.035156 121.601562 L 15.054688 121.601562 L 15.054688 121.308594 C 14.636719 121.289062 14.472656 121.203125 14.472656 121.015625 C 14.472656 120.828125 14.761719 120.351562 15.222656 119.789062 C 15.304688 119.703125 15.367188 119.621094 15.429688 119.558594 C 15.574219 119.808594 15.742188 120.058594 15.929688 120.308594 C 16.222656 120.726562 16.324219 120.933594 16.324219 121.078125 C 16.324219 121.226562 16.160156 121.289062 15.785156 121.308594 L 15.785156 121.601562 Z M 18.679688 121.601562 "/>
<path style="fill-rule:nonzero;fill:rgb(40.000001%,74.901962%,100%);fill-opacity:1;stroke-width:1;stroke-linecap:round;stroke-linejoin:round;stroke:rgb(0%,0%,0%);stroke-opacity:1;stroke-miterlimit:10;" d="M 328.225586 408.398438 L 349.225586 408.398438 L 349.225586 429.398438 L 328.225586 429.398438 Z M 328.225586 408.398438 " transform="matrix(1.333333,0,0,1.333333,-381.333333,-492)"/>
<path style=" stroke:none;fill-rule:nonzero;fill:rgb(0%,0%,0%);fill-opacity:1;" d="M 71.40625 62.429688 L 69.21875 62.429688 L 69.21875 62.722656 C 69.863281 62.761719 70.050781 62.886719 70.050781 63.242188 C 70.050781 63.410156 70.03125 63.574219 69.96875 63.761719 L 68.613281 67.867188 L 67.324219 63.847656 C 67.199219 63.429688 67.15625 63.285156 67.15625 63.160156 C 67.15625 62.886719 67.34375 62.761719 67.863281 62.742188 L 68.03125 62.722656 L 68.03125 62.429688 L 64.28125 62.429688 L 64.28125 62.722656 C 64.78125 62.742188 65.03125 62.847656 65.136719 63.136719 L 65.574219 64.285156 L 64.15625 67.992188 L 62.699219 63.617188 C 62.636719 63.410156 62.613281 63.324219 62.613281 63.222656 C 62.613281 62.886719 62.761719 62.761719 63.386719 62.722656 L 63.386719 62.429688 L 59.863281 62.429688 L 59.863281 62.722656 C 60.363281 62.785156 60.488281 62.910156 60.699219 63.492188 L 63.238281 70.722656 L 63.574219 70.722656 L 65.800781 64.992188 L 67.863281 70.722656 L 68.175781 70.722656 L 70.574219 63.492188 C 70.738281 63.011719 71.011719 62.761719 71.40625 62.722656 Z M 71.40625 62.429688 "/>
<path style=" stroke:none;fill-rule:nonzero;fill:rgb(0%,0%,0%);fill-opacity:1;" d="M 74.074219 66.492188 C 72.949219 65.554688 72.699219 64.660156 72.699219 63.160156 C 72.699219 61.617188 72.949219 60.867188 74.074219 59.929688 L 73.988281 59.785156 C 72.71875 60.554688 72.011719 61.699219 72.011719 63.179688 C 72.011719 64.554688 72.699219 65.886719 73.96875 66.617188 Z M 74.074219 66.492188 "/>
<path style=" stroke:none;fill-rule:nonzero;fill:rgb(0%,0%,0%);fill-opacity:1;" d="M 77.445312 65.199219 L 77.445312 65.074219 C 76.839844 65.074219 76.695312 64.929688 76.695312 64.597656 L 76.695312 59.824219 L 76.613281 59.785156 L 75.195312 60.511719 L 75.195312 60.636719 L 75.402344 60.554688 C 75.550781 60.492188 75.675781 60.449219 75.757812 60.449219 C 75.925781 60.449219 76.007812 60.574219 76.007812 60.847656 L 76.007812 64.449219 C 76.007812 64.886719 75.839844 65.054688 75.238281 65.074219 L 75.238281 65.199219 Z M 77.445312 65.199219 "/>
<path style=" stroke:none;fill-rule:nonzero;fill:rgb(0%,0%,0%);fill-opacity:1;" d="M 78.527344 59.929688 C 79.695312 60.824219 79.882812 61.742188 79.882812 63.242188 C 79.882812 64.804688 79.675781 65.554688 78.527344 66.492188 L 78.613281 66.617188 C 79.882812 65.847656 80.570312 64.699219 80.570312 63.222656 C 80.570312 61.867188 79.839844 60.535156 78.632812 59.785156 Z M 78.527344 59.929688 "/>
<path style=" stroke:none;fill-rule:nonzero;fill:rgb(69.803923%,85.09804%,100%);fill-opacity:1;" d="M 80.199219 108.363281 C 85.667969 113.832031 85.667969 122.699219 80.199219 128.167969 C 74.734375 133.636719 65.871094 133.636719 60.402344 128.167969 C 54.933594 122.699219 54.933594 113.832031 60.402344 108.363281 C 65.871094 102.902344 74.734375 102.902344 80.199219 108.363281 "/>
<path style="fill:none;stroke-width:1;stroke-linecap:round;stroke-linejoin:round;stroke:rgb(0%,0%,0%);stroke-opacity:1;stroke-miterlimit:10;" d="M 346.149414 450.27832 C 350.250977 454.374023 350.250977 461.024414 346.149414 465.125977 C 342.050781 469.227539 335.40332 469.227539 331.301758 465.125977 C 327.200195 461.024414 327.200195 454.374023 331.301758 450.27832 C 335.40332 446.176758 342.050781 446.176758 346.149414 450.27832 " transform="matrix(1.333333,0,0,1.333333,-381.333333,-492)"/>
<path style=" stroke:none;fill-rule:nonzero;fill:rgb(0%,0%,0%);fill-opacity:1;" d="M 67.90625 120.433594 L 67.054688 120.433594 L 69.84375 117.183594 L 67.054688 113.972656 L 67.96875 113.972656 L 70.304688 116.410156 L 72.71875 113.972656 L 73.554688 113.972656 L 70.71875 117.183594 L 73.554688 120.433594 L 72.636719 120.433594 L 70.304688 117.828125 Z M 67.90625 120.433594 "/>
<path style="fill:none;stroke-width:1;stroke-linecap:round;stroke-linejoin:round;stroke:rgb(0%,0%,0%);stroke-opacity:1;stroke-miterlimit:10;" d="M 369.050781 447.199219 L 390.050781 447.199219 L 390.050781 468.199219 L 369.050781 468.199219 Z M 369.050781 447.199219 " transform="matrix(1.333333,0,0,1.333333,-381.333333,-492)"/>
<path style=" stroke:none;fill-rule:nonzero;fill:rgb(0%,0%,0%);fill-opacity:1;" d="M 127.109375 119.683594 L 126.777344 119.683594 C 126.671875 120.058594 126.570312 120.246094 126.402344 120.515625 C 126.007812 121.058594 125.609375 121.226562 124.632812 121.226562 L 124.296875 121.226562 L 127.070312 116.371094 L 127.070312 116.058594 L 122.609375 116.058594 L 122.527344 117.765625 L 122.839844 117.765625 C 123.132812 116.640625 123.421875 116.453125 125.132812 116.453125 L 122.320312 121.308594 L 122.320312 121.601562 L 126.921875 121.601562 Z M 127.109375 119.683594 "/>
<path style=" stroke:none;fill-rule:nonzero;fill:rgb(69.803923%,85.09804%,100%);fill-opacity:1;" d="M 189.066406 108.363281 C 194.53125 113.832031 194.53125 122.699219 189.066406 128.167969 C 183.597656 133.636719 174.734375 133.636719 169.265625 128.167969 C 163.800781 122.699219 163.800781 113.832031 169.265625 108.363281 C 174.734375 102.902344 183.597656 102.902344 189.066406 108.363281 "/>
<path style="fill:none;stroke-width:1;stroke-linecap:round;stroke-linejoin:round;stroke:rgb(0%,0%,0%);stroke-opacity:1;stroke-miterlimit:10;" d="M 427.799805 450.27832 C 431.898438 454.374023 431.898438 461.024414 427.799805 465.125977 C 423.698242 469.227539 417.050781 469.227539 412.949219 465.125977 C 408.850586 461.024414 408.850586 454.374023 412.949219 450.27832 C 417.050781 446.176758 423.698242 446.176758 427.799805 450.27832 " transform="matrix(1.333333,0,0,1.333333,-381.333333,-492)"/>
<path style=" stroke:none;fill-rule:nonzero;fill:rgb(0%,0%,0%);fill-opacity:1;" d="M 181.175781 113.414062 L 180.257812 113.414062 L 179.445312 116.308594 L 179.257812 116.308594 C 177.070312 116.308594 175.738281 118.851562 175.738281 120.058594 C 175.738281 120.828125 176.03125 121.390625 176.65625 121.601562 C 176.945312 121.703125 177.425781 121.726562 177.945312 121.726562 L 177.28125 124.058594 L 178.21875 124.058594 L 178.863281 121.726562 C 181.238281 121.726562 182.550781 119.351562 182.550781 117.953125 C 182.550781 117.121094 182.175781 116.683594 181.59375 116.453125 C 181.257812 116.328125 180.925781 116.308594 180.363281 116.308594 Z M 180.300781 116.558594 C 180.550781 116.558594 180.882812 116.578125 180.988281 116.640625 C 181.300781 116.828125 181.53125 117.140625 181.53125 117.683594 C 181.53125 118.664062 180.757812 120.789062 179.78125 121.289062 C 179.445312 121.453125 179.238281 121.476562 178.945312 121.476562 Z M 178.007812 121.476562 C 177.738281 121.476562 177.507812 121.453125 177.320312 121.390625 C 176.945312 121.246094 176.738281 120.890625 176.738281 120.390625 C 176.738281 118.703125 177.988281 116.558594 179.382812 116.558594 Z M 178.007812 121.476562 "/>
<path style="fill:none;stroke-width:1;stroke-linecap:round;stroke-linejoin:round;stroke:rgb(0%,0%,0%);stroke-opacity:1;stroke-miterlimit:10;" d="M 450.698242 447.199219 L 471.698242 447.199219 L 471.698242 468.199219 L 450.698242 468.199219 Z M 450.698242 447.199219 " transform="matrix(1.333333,0,0,1.333333,-381.333333,-492)"/>
<path style=" stroke:none;fill-rule:nonzero;fill:rgb(0%,0%,0%);fill-opacity:1;" d="M 236.679688 121.601562 L 236.679688 121.308594 C 236.242188 121.308594 236.078125 121.101562 236.078125 120.558594 L 236.078125 117.558594 C 236.078125 116.601562 235.515625 115.933594 234.515625 115.933594 C 233.890625 115.933594 233.347656 116.140625 232.765625 116.851562 L 232.765625 113.496094 L 230.453125 113.496094 L 230.453125 113.765625 C 230.992188 113.890625 231.097656 113.933594 231.097656 114.515625 L 231.097656 120.539062 C 231.097656 121.203125 230.992188 121.203125 230.453125 121.308594 L 230.453125 121.601562 L 233.328125 121.601562 L 233.328125 121.308594 C 232.890625 121.246094 232.765625 121.078125 232.765625 120.578125 L 232.765625 117.433594 C 232.765625 117.371094 232.847656 117.246094 232.972656 117.140625 C 233.222656 116.871094 233.515625 116.726562 233.804688 116.726562 C 234.265625 116.726562 234.410156 117.039062 234.410156 117.890625 L 234.410156 120.578125 C 234.410156 121.078125 234.265625 121.265625 233.867188 121.308594 L 233.867188 121.601562 Z M 236.679688 121.601562 "/>
<path style="fill:none;stroke-width:1;stroke-linecap:round;stroke-linejoin:round;stroke:rgb(0%,0%,0%);stroke-opacity:1;stroke-miterlimit:10;" d="M 532.351562 447.199219 L 553.351562 447.199219 L 553.351562 468.199219 L 532.351562 468.199219 Z M 532.351562 447.199219 " transform="matrix(1.333333,0,0,1.333333,-381.333333,-492)"/>
<path style=" stroke:none;fill-rule:nonzero;fill:rgb(0%,0%,0%);fill-opacity:1;" d="M 345.175781 118.851562 C 345.175781 117.140625 344.027344 115.933594 342.507812 115.933594 C 340.925781 115.933594 339.757812 117.121094 339.757812 118.871094 C 339.757812 120.558594 340.964844 121.765625 342.464844 121.765625 C 344.007812 121.765625 345.175781 120.539062 345.175781 118.851562 Z M 343.425781 118.976562 C 343.425781 120.765625 343.175781 121.390625 342.488281 121.390625 C 341.777344 121.390625 341.527344 120.726562 341.527344 118.976562 C 341.527344 116.933594 341.738281 116.289062 342.488281 116.289062 C 343.195312 116.289062 343.425781 116.933594 343.425781 118.976562 Z M 343.425781 118.976562 "/>
<path style="fill-rule:nonzero;fill:rgb(40.000001%,74.901962%,100%);fill-opacity:1;stroke-width:1;stroke-linecap:round;stroke-linejoin:round;stroke:rgb(0%,0%,0%);stroke-opacity:1;stroke-miterlimit:10;" d="M 491.198242 408.398438 L 512.198242 408.398438 L 512.198242 429.398438 L 491.198242 429.398438 Z M 491.198242 408.398438 " transform="matrix(1.333333,0,0,1.333333,-381.333333,-492)"/>
<path style=" stroke:none;fill-rule:nonzero;fill:rgb(0%,0%,0%);fill-opacity:1;" d="M 288.703125 62.429688 L 286.515625 62.429688 L 286.515625 62.722656 C 287.164062 62.761719 287.351562 62.886719 287.351562 63.242188 C 287.351562 63.410156 287.328125 63.574219 287.265625 63.761719 L 285.914062 67.867188 L 284.621094 63.847656 C 284.496094 63.429688 284.453125 63.285156 284.453125 63.160156 C 284.453125 62.886719 284.640625 62.761719 285.164062 62.742188 L 285.328125 62.722656 L 285.328125 62.429688 L 281.578125 62.429688 L 281.578125 62.722656 C 282.078125 62.742188 282.328125 62.847656 282.433594 63.136719 L 282.871094 64.285156 L 281.453125 67.992188 L 279.996094 63.617188 C 279.933594 63.410156 279.914062 63.324219 279.914062 63.222656 C 279.914062 62.886719 280.058594 62.761719 280.683594 62.722656 L 280.683594 62.429688 L 277.164062 62.429688 L 277.164062 62.722656 C 277.664062 62.785156 277.789062 62.910156 277.996094 63.492188 L 280.539062 70.722656 L 280.871094 70.722656 L 283.101562 64.992188 L 285.164062 70.722656 L 285.476562 70.722656 L 287.871094 63.492188 C 288.039062 63.011719 288.308594 62.761719 288.703125 62.722656 Z M 288.703125 62.429688 "/>
<path style=" stroke:none;fill-rule:nonzero;fill:rgb(0%,0%,0%);fill-opacity:1;" d="M 291.371094 66.492188 C 290.246094 65.554688 289.996094 64.660156 289.996094 63.160156 C 289.996094 61.617188 290.246094 60.867188 291.371094 59.929688 L 291.289062 59.785156 C 290.015625 60.554688 289.308594 61.699219 289.308594 63.179688 C 289.308594 64.554688 289.996094 65.886719 291.265625 66.617188 Z M 291.371094 66.492188 "/>
<path style=" stroke:none;fill-rule:nonzero;fill:rgb(0%,0%,0%);fill-opacity:1;" d="M 295.390625 64.097656 L 295.285156 64.054688 C 295.015625 64.511719 294.847656 64.597656 294.515625 64.597656 L 292.640625 64.597656 L 293.953125 63.179688 C 294.660156 62.429688 294.972656 61.824219 294.972656 61.199219 C 294.972656 60.410156 294.410156 59.785156 293.492188 59.785156 C 292.515625 59.785156 292.015625 60.449219 291.847656 61.386719 L 292.015625 61.429688 C 292.328125 60.636719 292.597656 60.386719 293.179688 60.386719 C 293.867188 60.386719 294.285156 60.785156 294.285156 61.511719 C 294.285156 62.199219 294.015625 62.804688 293.242188 63.597656 L 291.828125 65.097656 L 291.828125 65.199219 L 294.953125 65.199219 Z M 295.390625 64.097656 "/>
<path style=" stroke:none;fill-rule:nonzero;fill:rgb(0%,0%,0%);fill-opacity:1;" d="M 295.828125 59.929688 C 296.992188 60.824219 297.179688 61.742188 297.179688 63.242188 C 297.179688 64.804688 296.972656 65.554688 295.828125 66.492188 L 295.910156 66.617188 C 297.179688 65.847656 297.867188 64.699219 297.867188 63.222656 C 297.867188 61.867188 297.140625 60.535156 295.929688 59.785156 Z M 295.828125 59.929688 "/>
<path style=" stroke:none;fill-rule:nonzero;fill:rgb(69.803923%,85.09804%,100%);fill-opacity:1;" d="M 297.933594 108.363281 C 303.402344 113.832031 303.402344 122.699219 297.933594 128.167969 C 292.464844 133.636719 283.597656 133.636719 278.136719 128.167969 C 272.667969 122.699219 272.667969 113.832031 278.136719 108.363281 C 283.597656 102.902344 292.464844 102.902344 297.933594 108.363281 "/>
<path style="fill:none;stroke-width:1;stroke-linecap:round;stroke-linejoin:round;stroke:rgb(0%,0%,0%);stroke-opacity:1;stroke-miterlimit:10;" d="M 509.450195 450.27832 C 513.551758 454.374023 513.551758 461.024414 509.450195 465.125977 C 505.348633 469.227539 498.698242 469.227539 494.602539 465.125977 C 490.500977 461.024414 490.500977 454.374023 494.602539 450.27832 C 498.698242 446.176758 505.348633 446.176758 509.450195 450.27832 " transform="matrix(1.333333,0,0,1.333333,-381.333333,-492)"/>
<path style=" stroke:none;fill-rule:nonzero;fill:rgb(0%,0%,0%);fill-opacity:1;" d="M 285.640625 120.433594 L 284.789062 120.433594 L 287.578125 117.183594 L 284.789062 113.972656 L 285.703125 113.972656 L 288.039062 116.410156 L 290.453125 113.972656 L 291.289062 113.972656 L 288.453125 117.183594 L 291.289062 120.433594 L 290.371094 120.433594 L 288.039062 117.828125 Z M 285.640625 120.433594 "/>
<path style="fill:none;stroke-width:1;stroke-linecap:round;stroke-linejoin:round;stroke:rgb(0%,0%,0%);stroke-opacity:1;stroke-miterlimit:10;" d="M 573.176758 408.398438 L 594.176758 408.398438 L 594.176758 429.398438 L 573.176758 429.398438 Z M 573.176758 408.398438 " transform="matrix(1.333333,0,0,1.333333,-381.333333,-492)"/>
<path style=" stroke:none;fill-rule:nonzero;fill:rgb(0%,0%,0%);fill-opacity:1;" d="M 397.152344 67.636719 C 396.945312 66.574219 396.320312 64.574219 396.132812 64.574219 L 396.089844 64.574219 C 395.445312 64.679688 395.046875 64.742188 394.796875 64.785156 C 394.671875 64.824219 394.546875 64.847656 394.421875 64.867188 L 394.421875 65.074219 C 394.546875 65.035156 394.652344 65.011719 394.777344 65.011719 C 395.277344 65.011719 395.484375 65.199219 395.714844 65.785156 C 396.027344 66.597656 396.695312 69.285156 396.695312 69.761719 C 396.695312 69.910156 396.652344 70.054688 396.570312 70.199219 C 396.484375 70.347656 395.945312 71.054688 395.714844 71.285156 C 395.445312 71.574219 395.296875 71.679688 395.152344 71.679688 C 394.839844 71.679688 394.839844 71.347656 394.421875 71.347656 C 394.152344 71.347656 393.945312 71.554688 393.945312 71.824219 C 393.945312 72.136719 394.195312 72.347656 394.570312 72.347656 C 395.234375 72.347656 396.527344 70.949219 397.777344 68.886719 C 398.777344 67.242188 399.339844 65.910156 399.339844 65.242188 C 399.339844 64.867188 399.089844 64.574219 398.714844 64.574219 C 398.445312 64.574219 398.234375 64.761719 398.234375 65.011719 C 398.234375 65.222656 398.320312 65.324219 398.546875 65.492188 C 398.777344 65.636719 398.859375 65.699219 398.859375 65.867188 C 398.859375 66.410156 398.421875 67.261719 397.402344 68.949219 Z M 397.152344 67.636719 "/>
<path style=" stroke:none;fill-rule:nonzero;fill:rgb(69.803923%,85.09804%,100%);fill-opacity:1;" d="M 406.796875 108.363281 C 412.265625 113.832031 412.265625 122.699219 406.796875 128.167969 C 401.332031 133.636719 392.46875 133.636719 387 128.167969 C 381.53125 122.699219 381.53125 113.832031 387 108.363281 C 392.46875 102.902344 401.332031 102.902344 406.796875 108.363281 "/>
<path style="fill:none;stroke-width:1;stroke-linecap:round;stroke-linejoin:round;stroke:rgb(0%,0%,0%);stroke-opacity:1;stroke-miterlimit:10;" d="M 591.097656 450.27832 C 595.199219 454.374023 595.199219 461.024414 591.097656 465.125977 C 586.999023 469.227539 580.351562 469.227539 576.25 465.125977 C 572.148438 461.024414 572.148438 454.374023 576.25 450.27832 C 580.351562 446.176758 586.999023 446.176758 591.097656 450.27832 " transform="matrix(1.333333,0,0,1.333333,-381.333333,-492)"/>
<path style=" stroke:none;fill-rule:nonzero;fill:rgb(0%,0%,0%);fill-opacity:1;" d="M 398.585938 113.453125 L 398.503906 113.414062 C 397.792969 113.558594 397.355469 113.640625 396.648438 113.726562 L 396.648438 113.914062 L 396.855469 113.914062 C 397.253906 113.914062 397.460938 114.039062 397.460938 114.183594 C 397.460938 114.226562 397.460938 114.289062 397.417969 114.414062 L 395.773438 120.703125 C 395.730469 120.828125 395.730469 120.953125 395.730469 121.058594 C 395.730469 121.496094 395.917969 121.726562 396.316406 121.726562 C 396.960938 121.726562 397.398438 121.371094 398.128906 120.226562 L 397.960938 120.121094 L 397.648438 120.539062 C 397.316406 121.015625 397.023438 121.226562 396.855469 121.226562 C 396.730469 121.226562 396.648438 121.140625 396.648438 120.996094 C 396.648438 120.914062 396.691406 120.703125 396.753906 120.476562 Z M 398.585938 113.453125 "/>
<path style="fill:none;stroke-width:1;stroke-linecap:round;stroke-linejoin:round;stroke:rgb(0%,0%,0%);stroke-opacity:1;stroke-miterlimit:10;" d="M 532.351562 408.398438 L 553.351562 408.398438 L 553.351562 429.398438 L 532.351562 429.398438 Z M 532.351562 408.398438 " transform="matrix(1.333333,0,0,1.333333,-381.333333,-492)"/>
<path style=" stroke:none;fill-rule:nonzero;fill:rgb(0%,0%,0%);fill-opacity:1;" d="M 345.839844 67.699219 L 345.589844 67.636719 C 345.253906 68.324219 345.003906 68.722656 344.609375 68.972656 C 344.027344 69.367188 343.652344 69.429688 342.464844 69.429688 C 341.464844 69.429688 341.191406 69.324219 341.191406 68.949219 C 341.191406 68.785156 341.234375 68.574219 341.316406 68.304688 L 342.753906 63.136719 C 342.941406 62.472656 343.253906 62.261719 343.964844 62.222656 L 343.964844 62.035156 L 340.691406 62.035156 L 340.691406 62.222656 C 341.441406 62.261719 341.609375 62.386719 341.609375 62.742188 C 341.609375 62.910156 341.589844 63.160156 341.484375 63.492188 L 340.027344 68.742188 C 339.796875 69.492188 339.714844 69.597656 339.027344 69.679688 L 339.027344 69.867188 L 345.152344 69.867188 Z M 345.839844 67.699219 "/>
<path style="fill:none;stroke-width:1;stroke-linecap:round;stroke-linejoin:round;stroke:rgb(0%,0%,0%);stroke-opacity:1;stroke-miterlimit:10;" d="M 308.397461 457.699219 L 322.325195 457.699219 " transform="matrix(1.333333,0,0,1.333333,-381.333333,-492)"/>
<path style="fill:none;stroke-width:1;stroke-linecap:butt;stroke-linejoin:miter;stroke:rgb(0%,0%,0%);stroke-opacity:1;stroke-miterlimit:10;" d="M 326.324219 457.699219 L 322.325195 457.699219 M 322.325195 456.199219 L 326.324219 457.699219 L 322.325195 459.199219 " transform="matrix(1.333333,0,0,1.333333,-381.333333,-492)"/>
<path style="fill:none;stroke-width:1;stroke-linecap:round;stroke-linejoin:round;stroke:rgb(0%,0%,0%);stroke-opacity:1;stroke-miterlimit:10;" d="M 338.725586 429.398438 L 338.725586 441.301758 " transform="matrix(1.333333,0,0,1.333333,-381.333333,-492)"/>
<path style="fill:none;stroke-width:1;stroke-linecap:butt;stroke-linejoin:miter;stroke:rgb(0%,0%,0%);stroke-opacity:1;stroke-miterlimit:10;" d="M 338.725586 445.300781 L 338.725586 441.301758 M 340.225586 441.301758 L 338.725586 445.300781 L 337.225586 441.301758 " transform="matrix(1.333333,0,0,1.333333,-381.333333,-492)"/>
<path style="fill:none;stroke-width:1;stroke-linecap:round;stroke-linejoin:round;stroke:rgb(0%,0%,0%);stroke-opacity:1;stroke-miterlimit:10;" d="M 349.225586 457.699219 L 363.147461 457.699219 " transform="matrix(1.333333,0,0,1.333333,-381.333333,-492)"/>
<path style="fill:none;stroke-width:1;stroke-linecap:butt;stroke-linejoin:miter;stroke:rgb(0%,0%,0%);stroke-opacity:1;stroke-miterlimit:10;" d="M 367.149414 457.699219 L 363.147461 457.699219 M 363.147461 456.199219 L 367.149414 457.699219 L 363.147461 459.199219 " transform="matrix(1.333333,0,0,1.333333,-381.333333,-492)"/>
<path style="fill:none;stroke-width:1;stroke-linecap:round;stroke-linejoin:round;stroke:rgb(0%,0%,0%);stroke-opacity:1;stroke-miterlimit:10;" d="M 390.050781 457.699219 L 403.975586 457.699219 " transform="matrix(1.333333,0,0,1.333333,-381.333333,-492)"/>
<path style="fill:none;stroke-width:1;stroke-linecap:butt;stroke-linejoin:miter;stroke:rgb(0%,0%,0%);stroke-opacity:1;stroke-miterlimit:10;" d="M 407.977539 457.699219 L 403.975586 457.699219 M 403.975586 456.199219 L 407.977539 457.699219 L 403.975586 459.199219 " transform="matrix(1.333333,0,0,1.333333,-381.333333,-492)"/>
<path style="fill:none;stroke-width:1;stroke-linecap:round;stroke-linejoin:round;stroke:rgb(0%,0%,0%);stroke-opacity:1;stroke-miterlimit:10;" d="M 430.875977 457.699219 L 444.800781 457.699219 " transform="matrix(1.333333,0,0,1.333333,-381.333333,-492)"/>
<path style="fill:none;stroke-width:1;stroke-linecap:butt;stroke-linejoin:miter;stroke:rgb(0%,0%,0%);stroke-opacity:1;stroke-miterlimit:10;" d="M 448.799805 457.699219 L 444.800781 457.699219 M 444.800781 456.199219 L 448.799805 457.699219 L 444.800781 459.199219 " transform="matrix(1.333333,0,0,1.333333,-381.333333,-492)"/>
<path style="fill:none;stroke-width:1;stroke-linecap:round;stroke-linejoin:round;stroke:rgb(0%,0%,0%);stroke-opacity:1;stroke-miterlimit:10;" d="M 501.786133 429.398438 L 501.885742 441.301758 " transform="matrix(1.333333,0,0,1.333333,-381.333333,-492)"/>
<path style="fill:none;stroke-width:1;stroke-linecap:butt;stroke-linejoin:miter;stroke:rgb(0%,0%,0%);stroke-opacity:1;stroke-miterlimit:10;" d="M 501.920898 445.300781 L 501.885742 441.301758 M 503.385742 441.290039 L 501.920898 445.300781 L 500.385742 441.313477 " transform="matrix(1.333333,0,0,1.333333,-381.333333,-492)"/>
<path style="fill:none;stroke-width:1;stroke-linecap:round;stroke-linejoin:round;stroke:rgb(0%,0%,0%);stroke-opacity:1;stroke-miterlimit:10;" d="M 471.698242 457.699219 L 485.625977 457.699219 " transform="matrix(1.333333,0,0,1.333333,-381.333333,-492)"/>
<path style="fill:none;stroke-width:1;stroke-linecap:butt;stroke-linejoin:miter;stroke:rgb(0%,0%,0%);stroke-opacity:1;stroke-miterlimit:10;" d="M 489.625 457.699219 L 485.625977 457.699219 M 485.625977 456.199219 L 489.625 457.699219 L 485.625977 459.199219 " transform="matrix(1.333333,0,0,1.333333,-381.333333,-492)"/>
<path style="fill:none;stroke-width:1;stroke-linecap:round;stroke-linejoin:round;stroke:rgb(0%,0%,0%);stroke-opacity:1;stroke-miterlimit:10;" d="M 512.523438 457.699219 L 526.448242 457.699219 " transform="matrix(1.333333,0,0,1.333333,-381.333333,-492)"/>
<path style="fill:none;stroke-width:1;stroke-linecap:butt;stroke-linejoin:miter;stroke:rgb(0%,0%,0%);stroke-opacity:1;stroke-miterlimit:10;" d="M 530.450195 457.699219 L 526.448242 457.699219 M 526.448242 456.199219 L 530.450195 457.699219 L 526.448242 459.199219 " transform="matrix(1.333333,0,0,1.333333,-381.333333,-492)"/>
<path style="fill:none;stroke-width:1;stroke-linecap:round;stroke-linejoin:round;stroke:rgb(0%,0%,0%);stroke-opacity:1;stroke-miterlimit:10;" d="M 553.351562 457.699219 L 567.273438 457.699219 " transform="matrix(1.333333,0,0,1.333333,-381.333333,-492)"/>
<path style="fill:none;stroke-width:1;stroke-linecap:butt;stroke-linejoin:miter;stroke:rgb(0%,0%,0%);stroke-opacity:1;stroke-miterlimit:10;" d="M 571.272461 457.699219 L 567.273438 457.699219 M 567.273438 456.199219 L 571.272461 457.699219 L 567.273438 459.199219 " transform="matrix(1.333333,0,0,1.333333,-381.333333,-492)"/>
<path style="fill:none;stroke-width:1;stroke-linecap:round;stroke-linejoin:round;stroke:rgb(0%,0%,0%);stroke-opacity:1;stroke-miterlimit:10;" d="M 583.676758 429.398438 L 583.676758 441.301758 " transform="matrix(1.333333,0,0,1.333333,-381.333333,-492)"/>
<path style="fill:none;stroke-width:1;stroke-linecap:butt;stroke-linejoin:miter;stroke:rgb(0%,0%,0%);stroke-opacity:1;stroke-miterlimit:10;" d="M 583.676758 445.300781 L 583.676758 441.301758 M 585.176758 441.301758 L 583.676758 445.300781 L 582.176758 441.301758 " transform="matrix(1.333333,0,0,1.333333,-381.333333,-492)"/>
<path style="fill:none;stroke-width:1;stroke-linecap:round;stroke-linejoin:round;stroke:rgb(0%,0%,0%);stroke-opacity:1;stroke-miterlimit:10;" d="M 576.0625 450.46582 L 557.625977 432.946289 " transform="matrix(1.333333,0,0,1.333333,-381.333333,-492)"/>
<path style="fill:none;stroke-width:1;stroke-linecap:butt;stroke-linejoin:miter;stroke:rgb(0%,0%,0%);stroke-opacity:1;stroke-miterlimit:10;" d="M 554.725586 430.186523 L 557.625977 432.946289 M 556.594727 434.030273 L 554.725586 430.186523 L 558.660156 431.856445 " transform="matrix(1.333333,0,0,1.333333,-381.333333,-492)"/>
<path style="fill-rule:nonzero;fill:rgb(69.803923%,85.09804%,100%);fill-opacity:1;stroke-width:1;stroke-linecap:round;stroke-linejoin:round;stroke:rgb(0%,0%,0%);stroke-opacity:1;stroke-miterlimit:10;" d="M 427.799805 411.477539 C 431.901367 415.573242 431.901367 422.223633 427.799805 426.325195 C 423.698242 430.426758 417.050781 430.426758 412.949219 426.325195 C 408.850586 422.223633 408.850586 415.573242 412.949219 411.477539 C 417.050781 407.375977 423.698242 407.375977 427.799805 411.477539 " transform="matrix(1.333333,0,0,1.333333,-381.333333,-492)"/>
<path style=" stroke:none;fill-rule:nonzero;fill:rgb(0%,0%,0%);fill-opacity:1;" d="M 174.609375 63.867188 C 174.941406 64.097656 175.316406 64.199219 175.671875 64.222656 C 175.503906 64.472656 175.339844 64.742188 175.191406 65.011719 C 174.628906 65.992188 174.277344 66.972656 174.277344 67.617188 C 174.277344 68.324219 174.753906 68.660156 175.316406 68.660156 C 176.066406 68.660156 176.777344 67.992188 178.046875 66.511719 L 177.777344 66.304688 C 176.628906 67.636719 175.964844 68.304688 175.402344 68.304688 C 175.066406 68.304688 174.964844 68.074219 174.964844 67.785156 C 174.964844 66.992188 176.046875 65.222656 176.671875 64.222656 C 178.796875 63.910156 180.546875 62.347656 180.546875 61.097656 C 180.546875 60.535156 180.277344 60.285156 179.777344 60.285156 C 178.796875 60.285156 177.171875 61.992188 175.921875 63.847656 C 175.546875 63.847656 175.171875 63.824219 174.777344 63.554688 Z M 176.902344 63.785156 C 177.527344 62.804688 178.191406 61.847656 178.777344 61.242188 C 179.089844 60.929688 179.421875 60.679688 179.753906 60.679688 C 180.046875 60.679688 180.191406 60.824219 180.191406 61.054688 C 180.191406 62.199219 178.796875 63.367188 176.921875 63.785156 Z M 176.902344 63.785156 "/>
<path style=" stroke:none;fill-rule:nonzero;fill:rgb(0%,0%,0%);fill-opacity:1;" d="M 181.453125 68.472656 C 181.722656 67.949219 182.140625 67.699219 182.621094 67.699219 C 183.246094 67.699219 183.578125 68.117188 183.578125 68.679688 C 183.578125 68.847656 183.535156 69.011719 183.496094 69.117188 C 183.308594 69.535156 182.953125 70.054688 182.410156 70.597656 L 180.746094 72.386719 L 180.746094 72.535156 L 183.578125 72.535156 L 183.972656 71.472656 L 183.828125 71.410156 C 183.640625 71.804688 183.472656 71.929688 183.015625 71.929688 L 181.558594 71.929688 L 181.558594 71.886719 L 183.058594 70.347656 C 184.015625 69.386719 184.265625 69.011719 184.265625 68.472656 C 184.265625 67.722656 183.722656 67.117188 182.953125 67.117188 C 182.597656 67.117188 182.246094 67.222656 181.933594 67.472656 C 181.660156 67.679688 181.472656 67.949219 181.285156 68.429688 Z M 181.453125 68.472656 "/>
<path style="fill:none;stroke-width:1;stroke-linecap:round;stroke-linejoin:round;stroke:rgb(0%,0%,0%);stroke-opacity:1;stroke-miterlimit:10;" d="M 349.225586 418.898438 L 403.975586 418.898438 " transform="matrix(1.333333,0,0,1.333333,-381.333333,-492)"/>
<path style="fill:none;stroke-width:1;stroke-linecap:butt;stroke-linejoin:miter;stroke:rgb(0%,0%,0%);stroke-opacity:1;stroke-miterlimit:10;" d="M 407.977539 418.898438 L 403.975586 418.898438 M 403.975586 417.398438 L 407.977539 418.898438 L 403.975586 420.398438 " transform="matrix(1.333333,0,0,1.333333,-381.333333,-492)"/>
<path style="fill:none;stroke-width:1;stroke-linecap:round;stroke-linejoin:round;stroke:rgb(0%,0%,0%);stroke-opacity:1;stroke-miterlimit:10;" d="M 491.198242 418.898438 L 436.776367 418.898438 " transform="matrix(1.333333,0,0,1.333333,-381.333333,-492)"/>
<path style="fill:none;stroke-width:1;stroke-linecap:butt;stroke-linejoin:miter;stroke:rgb(0%,0%,0%);stroke-opacity:1;stroke-miterlimit:10;" d="M 432.777344 418.898438 L 436.776367 418.898438 M 436.776367 420.398438 L 432.777344 418.898438 L 436.776367 417.398438 " transform="matrix(1.333333,0,0,1.333333,-381.333333,-492)"/>
<path style="fill:none;stroke-width:1;stroke-linecap:round;stroke-linejoin:round;stroke:rgb(0%,0%,0%);stroke-opacity:1;stroke-miterlimit:10;" d="M 409.875977 369.600586 L 430.875977 369.600586 L 430.875977 390.600586 L 409.875977 390.600586 Z M 409.875977 369.600586 " transform="matrix(1.333333,0,0,1.333333,-381.333333,-492)"/>
<path style=" stroke:none;fill-rule:nonzero;fill:rgb(0%,0%,0%);fill-opacity:1;" d="M 181.230469 12.820312 L 181.0625 12.820312 C 180.957031 12.988281 180.875 13.050781 180.6875 13.050781 C 180.605469 13.050781 180.5 13.027344 180.269531 12.964844 C 179.957031 12.882812 179.792969 12.839844 179.582031 12.839844 C 178.707031 12.839844 178.144531 13.339844 178.144531 14.132812 C 178.144531 14.527344 178.375 15.070312 178.894531 15.714844 C 179.375 16.300781 179.5625 16.695312 179.5625 17.089844 C 179.5625 17.675781 179.230469 18.007812 178.667969 18.007812 C 178.042969 18.007812 177.625 17.527344 177.457031 16.382812 L 177.269531 16.382812 L 177.019531 18.277344 L 177.207031 18.277344 C 177.292969 18.089844 177.4375 18.027344 177.5625 18.027344 C 177.6875 18.027344 177.875 18.050781 178.082031 18.152344 C 178.375 18.257812 178.542969 18.257812 178.75 18.257812 C 179.75 18.257812 180.480469 17.652344 180.480469 16.652344 C 180.480469 16.195312 180.269531 15.714844 179.667969 15.027344 C 179.1875 14.464844 179.019531 14.132812 179.019531 13.800781 C 179.019531 13.363281 179.3125 13.113281 179.730469 13.113281 C 180.3125 13.113281 180.667969 13.507812 180.792969 14.507812 L 180.980469 14.507812 Z M 181.230469 12.820312 "/>
<path style="fill:none;stroke-width:1;stroke-linecap:round;stroke-linejoin:round;stroke:rgb(0%,0%,0%);stroke-opacity:1;stroke-miterlimit:10;" d="M 573.176758 369.600586 L 594.176758 369.600586 L 594.176758 390.600586 L 573.176758 390.600586 Z M 573.176758 369.600586 " transform="matrix(1.333333,0,0,1.333333,-381.333333,-492)"/>
<path style=" stroke:none;fill-rule:nonzero;fill:rgb(0%,0%,0%);fill-opacity:1;" d="M 400.132812 10.300781 L 397.089844 10.300781 L 397.089844 10.488281 C 397.839844 10.570312 398.007812 10.652344 398.007812 10.988281 C 398.007812 11.152344 397.964844 11.402344 397.859375 11.757812 L 396.339844 17.195312 C 396.195312 17.675781 395.984375 17.964844 395.695312 17.964844 C 395.402344 17.964844 395.277344 17.839844 395.277344 17.488281 C 395.277344 17.382812 395.320312 17.320312 395.320312 17.175781 C 395.320312 16.882812 395.027344 16.613281 394.695312 16.613281 C 394.382812 16.613281 394.171875 16.902344 394.171875 17.300781 C 394.171875 17.925781 394.734375 18.339844 395.570312 18.339844 C 396.171875 18.339844 396.714844 18.152344 397.046875 17.695312 C 397.359375 17.277344 397.652344 16.695312 397.902344 15.777344 L 399.152344 11.382812 C 399.339844 10.652344 399.445312 10.589844 400.132812 10.488281 Z M 400.132812 10.300781 "/>
<path style="fill-rule:nonzero;fill:rgb(69.803923%,85.09804%,100%);fill-opacity:1;stroke-width:1;stroke-linecap:round;stroke-linejoin:round;stroke:rgb(0%,0%,0%);stroke-opacity:1;stroke-miterlimit:10;" d="M 509.125 372.676758 C 513.223633 376.77832 513.223633 383.425781 509.125 387.524414 C 505.023438 391.625977 498.375977 391.625977 494.274414 387.524414 C 490.172852 383.425781 490.172852 376.77832 494.274414 372.676758 C 498.375977 368.575195 505.023438 368.575195 509.125 372.676758 " transform="matrix(1.333333,0,0,1.333333,-381.333333,-492)"/>
<path style=" stroke:none;fill-rule:nonzero;fill:rgb(0%,0%,0%);fill-opacity:1;" d="M 290.632812 15.488281 L 290.632812 14.695312 L 288.007812 14.695312 L 288.007812 12.070312 L 287.214844 12.070312 L 287.214844 14.695312 L 284.589844 14.695312 L 284.589844 15.488281 L 287.214844 15.488281 L 287.214844 18.132812 L 288.007812 18.132812 L 288.007812 15.488281 Z M 290.632812 15.488281 "/>
<path style="fill:none;stroke-width:1;stroke-linecap:round;stroke-linejoin:round;stroke:rgb(0%,0%,0%);stroke-opacity:1;stroke-miterlimit:10;" d="M 420.601562 407.800781 L 420.507812 396.500977 " transform="matrix(1.333333,0,0,1.333333,-381.333333,-492)"/>
<path style="fill:none;stroke-width:1;stroke-linecap:butt;stroke-linejoin:miter;stroke:rgb(0%,0%,0%);stroke-opacity:1;stroke-miterlimit:10;" d="M 420.475586 392.499023 L 420.507812 396.500977 M 419.007812 396.512695 L 420.475586 392.499023 L 422.007812 396.489258 " transform="matrix(1.333333,0,0,1.333333,-381.333333,-492)"/>
<path style="fill:none;stroke-width:1;stroke-linecap:round;stroke-linejoin:round;stroke:rgb(0%,0%,0%);stroke-opacity:1;stroke-miterlimit:10;" d="M 430.875977 380.100586 L 485.297852 380.100586 " transform="matrix(1.333333,0,0,1.333333,-381.333333,-492)"/>
<path style="fill:none;stroke-width:1;stroke-linecap:butt;stroke-linejoin:miter;stroke:rgb(0%,0%,0%);stroke-opacity:1;stroke-miterlimit:10;" d="M 489.296875 380.100586 L 485.297852 380.100586 M 485.297852 378.600586 L 489.296875 380.100586 L 485.297852 381.600586 " transform="matrix(1.333333,0,0,1.333333,-381.333333,-492)"/>
<path style="fill:none;stroke-width:1;stroke-linecap:round;stroke-linejoin:round;stroke:rgb(0%,0%,0%);stroke-opacity:1;stroke-miterlimit:10;" d="M 532.351562 408.999023 L 513.633789 391.350586 " transform="matrix(1.333333,0,0,1.333333,-381.333333,-492)"/>
<path style="fill:none;stroke-width:1;stroke-linecap:butt;stroke-linejoin:miter;stroke:rgb(0%,0%,0%);stroke-opacity:1;stroke-miterlimit:10;" d="M 510.72168 388.605469 L 513.633789 391.350586 M 512.602539 392.44043 L 510.72168 388.605469 L 514.65918 390.257812 " transform="matrix(1.333333,0,0,1.333333,-381.333333,-492)"/>
<path style="fill:none;stroke-width:1;stroke-linecap:round;stroke-linejoin:round;stroke:rgb(0%,0%,0%);stroke-opacity:1;stroke-miterlimit:10;" d="M 512.198242 380.100586 L 567.273438 380.100586 " transform="matrix(1.333333,0,0,1.333333,-381.333333,-492)"/>
<path style="fill:none;stroke-width:1;stroke-linecap:butt;stroke-linejoin:miter;stroke:rgb(0%,0%,0%);stroke-opacity:1;stroke-miterlimit:10;" d="M 571.272461 380.100586 L 567.273438 380.100586 M 567.273438 378.600586 L 571.272461 380.100586 L 567.273438 381.600586 " transform="matrix(1.333333,0,0,1.333333,-381.333333,-492)"/>
</g>
</svg>
